<svg xmlns="http://www.w3.org/2000/svg" width="218.696" height="364.257" viewBox="0 0 218.696 364.257"><defs><style>.a{fill:#211715;}</style></defs><path class="a" d="M168.469,172.429a183.887,183.887,0,0,0-24.352-4,2.014,2.014,0,0,0-2,2,2.045,2.045,0,0,0,2,2,175.8,175.8,0,0,1,23.288,3.859c2.5.608,3.568-3.248,1.064-3.857Z"/><path class="a" d="M106.207,166.947a278.167,278.167,0,0,0-35.072,2.822,2.014,2.014,0,0,0-1.4,2.46,2.052,2.052,0,0,0,2.461,1.4,269.882,269.882,0,0,1,34.008-2.679c2.57-.055,2.579-4.055,0-4Z"/><path class="a" d="M40.708,178.45c-5.521,2.976-10.95,7.667-11,14.437a2,2,0,0,0,4,0c0-.32.014-.64.044-.959.011-.12.095-.6.006-.1.023-.129.043-.258.068-.386a11.81,11.81,0,0,1,.5-1.729c.177-.492-.182.372.042-.1.068-.143.134-.287.206-.429.132-.264.276-.521.428-.774s.319-.509.492-.755c.1-.137.2-.271.295-.4-.27.358.078-.088.11-.126a16.675,16.675,0,0,1,1.327-1.41q.4-.381.823-.739.216-.183.436-.362c.054-.043.484-.371.2-.161a32.048,32.048,0,0,1,4.041-2.549,2.017,2.017,0,0,0,.718-2.736,2.044,2.044,0,0,0-2.736-.718Z"/><path class="a" d="M196.207,192.887c-.041-5.773-4.044-10.1-8.641-13.067a2.017,2.017,0,0,0-2.736.718,2.044,2.044,0,0,0,.718,2.736c.559.362,1.095.751,1.638,1.135.182.128-.179-.148.1.078.14.112.28.225.418.34q.339.282.665.577a17.689,17.689,0,0,1,1.254,1.256c.182.2.359.407.529.618.128.158.189.257.031.037.092.128.187.254.277.383a12.359,12.359,0,0,1,.8,1.314c.07.133.138.268.2.4.026.055.206.446.083.172s.045.118.067.175c.043.116.085.233.124.35a10.28,10.28,0,0,1,.386,1.507c.03.173.178.472.014.059a1.179,1.179,0,0,1,.031.3c.026.3.037.606.039.91a2,2,0,0,0,4,0Z"/><path class="a" d="M100.886,207.674a26.251,26.251,0,0,1,2.729-1.728q.618-.34,1.254-.646c.242-.117.486-.229.732-.339.122-.054.245-.108.369-.161q-.252.108.081-.029a30.619,30.619,0,0,1,6.018-1.665,2.009,2.009,0,0,0,1.4-2.46,2.059,2.059,0,0,0-2.461-1.4,28.926,28.926,0,0,0-12.137,4.971,2.047,2.047,0,0,0-.718,2.737,2.023,2.023,0,0,0,2.736.717Z"/><path class="a" d="M87.675,179.139a21.413,21.413,0,0,0-6.647,2.7,2,2,0,1,0,2.018,3.454,20.266,20.266,0,0,1,2.713-1.407l-.478.2A20.041,20.041,0,0,1,88.739,183a2.016,2.016,0,0,0,1.4-2.46,2.046,2.046,0,0,0-2.461-1.4Z"/><path class="a" d="M112.235,188.3a63.532,63.532,0,0,1-10.892,2.235,29.371,29.371,0,0,1-4.764.014,11.834,11.834,0,0,1-4.314-.87,5.591,5.591,0,0,1-2.743-6.652c.786-2.555,3.254-4.158,5.368-5.554,5.59-3.69,11.857-6.155,17.506-9.735a44.992,44.992,0,0,0,14.07-14.289c3.494-5.661,5.29-12.138,8.246-18.063a31.448,31.448,0,0,1,2.427-4.228,9.281,9.281,0,0,1,3.631-2.925,7.63,7.63,0,0,0,3.075-2.843c.858-1.448,1.07-3.219,1.589-4.8A12.65,12.65,0,0,1,147.2,116.8c.644-.856,1.484-2.023,2.662-1.483s.244,1.64-.261,2.541a18.146,18.146,0,0,0-1.852,4.912,12.4,12.4,0,0,0-.342,4.826c.309,1.713,1.36,2.787,2.45,4.039a14.437,14.437,0,0,1,2.983,7.527c1.8,13.14-5.257,25.434-14.305,34.387-1.833,1.813,1,4.642,2.828,2.829a59.8,59.8,0,0,0,10.854-14.477,44.036,44.036,0,0,0,3.771-9.183,37.5,37.5,0,0,0,1.079-10.354,25.351,25.351,0,0,0-1.913-9.674,15.258,15.258,0,0,0-2.359-3.754,7.481,7.481,0,0,1-1.279-1.52,4.071,4.071,0,0,1-.148-2.3,14.932,14.932,0,0,1,1.687-5.239c.923-1.646,1.779-3.03,1.21-5a5.291,5.291,0,0,0-7.821-2.905c-3.026,1.979-4.374,5.7-5.312,9.009-.422,1.488-.6,2.8-2.057,3.619a14.984,14.984,0,0,0-4.095,2.9c-2.408,2.652-3.944,6.136-5.343,9.394-1.451,3.38-2.716,6.841-4.286,10.169a40.987,40.987,0,0,1-13.9,16.518c-6.024,4.053-12.9,6.617-18.932,10.669-2.557,1.718-5.122,3.639-6.4,6.535a9.818,9.818,0,0,0,1.1,9.768c2.228,2.872,5.485,3.647,8.94,3.957a39.115,39.115,0,0,0,11.416-.992c1.924-.393,3.832-.852,5.727-1.365,2.481-.673,1.428-4.533-1.064-3.857Z"/><path class="a" d="M142.978,144.584a25.48,25.48,0,0,1-12.153,21.554c-2.2,1.329-.193,4.79,2.019,3.454a29.583,29.583,0,0,0,14.134-25.008c0-2.574-4-2.578-4,0Z"/><path class="a" d="M199.652,157.611c1.152,3.906,2.439,7.772,3.663,11.656.222.705.669,1.49.312,2.206a6.583,6.583,0,0,1-2.194,2.029,27.246,27.246,0,0,1-5.875,3.026,86.983,86.983,0,0,1-13.326,4.017,35.37,35.37,0,0,1-7.264.815c-1.782,0-3-.2-3.532-2.043-1.261-4.389-2.494-8.787-3.777-13.171-.722-2.465-4.583-1.416-3.857,1.064,1.3,4.444,2.5,8.918,3.83,13.355a6.309,6.309,0,0,0,4.448,4.535c2.509.665,5.473.213,8-.138a77.083,77.083,0,0,0,15.752-4.28,35.108,35.108,0,0,0,6.924-3.26c1.994-1.281,4.363-2.944,4.9-5.41a7.584,7.584,0,0,0-.546-4q-.626-1.983-1.26-3.963c-.8-2.5-1.6-4.989-2.343-7.5-.726-2.464-4.588-1.415-3.857,1.063Z"/><path class="a" d="M180.613,152.743a43,43,0,0,0-11.061,4.845c-2.6,1.683-5.592,4.115-5.8,7.463-.418,6.606,8.478,6.815,12.953,6.39a55.052,55.052,0,0,0,19.219-5.4c2.664-1.333,5.634-3.179,6.915-6a5.856,5.856,0,0,0-1.926-7.375c-2.635-1.819-6.348-1.9-9.425-1.754a47.5,47.5,0,0,0-10.871,1.83c-2.468.714-1.418,4.575,1.064,3.857a43.96,43.96,0,0,1,7.68-1.524,22.336,22.336,0,0,1,7.472.171c.335.082.984.278,1.125.339a5.991,5.991,0,0,1,.584.3,1.631,1.631,0,0,1,.34.236,1.539,1.539,0,0,1,.563,1.515c-.213,1.824-2.687,3.38-4.321,4.3a48.53,48.53,0,0,1-15.471,5.1,32.024,32.024,0,0,1-7.638.5,9.3,9.3,0,0,1-2.961-.624,7.455,7.455,0,0,1-.835-.5c.218.175-.134-.149-.18-.21-.17-.225-.031.062-.182-.3-.089-.21-.013,0,0,.034a1.465,1.465,0,0,1-.119-.414c.024.235,0-.433-.008-.33a3.258,3.258,0,0,1,.563-1.274,10.775,10.775,0,0,1,2.974-2.688,38.372,38.372,0,0,1,10.41-4.642C184.138,155.867,183.09,152.006,180.613,152.743Z"/><path class="a" d="M46.456,195.656c-1.569-8.71-3.046-17.435-4.574-26.152-.709-4.044-1.346-7.832.553-11.68,1.485-3.009,2.928-6.074,4.111-9.215a2.017,2.017,0,0,0-1.4-2.46,2.044,2.044,0,0,0-2.461,1.4c-1.2,3.177-2.827,6.149-4.165,9.261a17.689,17.689,0,0,0-1.422,6.108,29.86,29.86,0,0,0,.756,6.693c1.586,9.036,3.116,18.082,4.741,27.111a2.019,2.019,0,0,0,2.461,1.4,2.045,2.045,0,0,0,1.4-2.46Z"/><path class="a" d="M56.673,147.422q2.856,2.787,5.775,5.519a19.458,19.458,0,0,1,3.2,3.377,12.847,12.847,0,0,1,1.829,4.511c1.715,8.208,3.283,16.451,4.914,24.676q1.383,6.968,2.716,13.944c.482,2.526,4.338,1.456,3.858-1.063-1.612-8.459-3.3-16.9-4.995-25.346q-1.257-6.27-2.493-12.546a16.67,16.67,0,0,0-5.091-9.381C64.046,149,61.76,146.8,59.5,144.593c-1.843-1.8-4.675,1.027-2.828,2.829Z"/><path class="a" d="M45.057,145.058a4.51,4.51,0,0,1-.6.019c.07,0,.271.1.127.01-.236-.148.313.211.109.06a1.023,1.023,0,0,1,.392.6c.012.414.015-.048,0-.172-.07-.772-.264-1.543-.406-2.3-.4-2.138-.768-4.284-1.186-6.418-.02-.1-.027-.439-.021-.073.006.387.008-.077,0-.182,0-.088.01-.173.009-.26,0,.094-.127.43-.008.123.018-.046.074-.286-.01-.035-.1.285.036-.113.1-.158.031-.022-.247.245-.258.26.039-.053.32-.144.033-.053.166-.053.332-.091.5-.127.2-.042.407-.075.61-.113l4.748-.887,4.446-.83c.108-.02.441-.078.4-.073-.179.023.315-.089.075,0-.207.079.1.028.082.036.075-.039-.378-.053-.05.007l-.172-.129q.186.2.034.008c-.063-.262.051.178.135.245-.22-.176-.106-.361-.063-.15.014.065.047.128.062.194.107.469.188.943.276,1.416q.648,3.461,1.3,6.92c.025.133.044.271.076.4.076.314-.052-.549-.03-.223.012.17-.048.6.042-.041-.059.422.025-.039.2-.23-.215.24,0,.033.065-.011a1.733,1.733,0,0,1-.313.177c.269-.108-.418.071-.412.069-.186.039-.374.07-.561.105l-9.738,1.818a2.02,2.02,0,0,0-1.4,2.461,2.044,2.044,0,0,0,2.461,1.4l9.873-1.843a5,5,0,0,0,2.85-1.343,3.716,3.716,0,0,0,.84-3.282c-.392-2.406-.9-4.8-1.35-7.194a7.718,7.718,0,0,0-.927-3,3.965,3.965,0,0,0-3.88-1.749c-1.6.2-3.186.573-4.768.868L43.3,132.392a4.824,4.824,0,0,0-2.666,1.206,4.232,4.232,0,0,0-1.132,3.346c.1,1.071.357,2.14.551,3.2q.456,2.483.922,4.962c.032.169.058.34.1.506.081.364.038.146.028.031.009.1.008.2.016.295a3.486,3.486,0,0,0,.468,1.6c.989,1.6,2.878,1.658,4.543,1.38a2.015,2.015,0,0,0,1.4-2.46,2.048,2.048,0,0,0-2.461-1.4Z"/><path class="a" d="M41.836,174.623c9.62-1.8,19.234-3.624,28.854-5.421,2.528-.472,1.457-4.328-1.063-3.857-9.62,1.8-19.234,3.624-28.854,5.421-2.527.472-1.457,4.328,1.063,3.857Z"/><path class="a" d="M44.187,191.19c9.941-2.163,19.98-3.848,30.023-5.458a2.016,2.016,0,0,0,1.4-2.46,2.05,2.05,0,0,0-2.461-1.4c-10.042,1.609-20.081,3.295-30.022,5.458-2.514.547-1.45,4.4,1.063,3.857Z"/><path class="a" d="M191,79.78a11.679,11.679,0,0,1-3.431.856c-1.056.069-2.108-.065-3.164.018a17.5,17.5,0,0,0-5.871,1.562c-3.8,1.71-7.694,5.045-9.2,9.018a20.779,20.779,0,0,0,5.913,22.97,24.253,24.253,0,0,0,12.812,5.022,24.7,24.7,0,0,0,14.471-2.627,21.767,21.767,0,0,0,10.246-9.717A21.2,21.2,0,0,0,214.4,92.893a18.49,18.49,0,0,0-7.575-11.572A17.5,17.5,0,0,0,191,79.78a2.06,2.06,0,0,0-1.4,2.46,2.014,2.014,0,0,0,2.46,1.4,13.759,13.759,0,0,1,11.655.492,13.451,13.451,0,0,1,6.263,7.791,17.505,17.505,0,0,1,.006,11.341,16.587,16.587,0,0,1-7.521,8.827,21.141,21.141,0,0,1-12,3.361A22.848,22.848,0,0,1,179.2,112.2a16.657,16.657,0,0,1-6.686-17.724c.984-3.968,4.09-6.946,7.725-8.66a12.152,12.152,0,0,1,4.774-1.192,19.931,19.931,0,0,0,7.049-.984,2.059,2.059,0,0,0,1.4-2.46A2.016,2.016,0,0,0,191,79.78Z"/><path class="a" d="M185.85,87.213a12.038,12.038,0,0,0-1.6,1.866,9.513,9.513,0,0,0-.986,1.744,1.477,1.477,0,0,0-.238.743,1.526,1.526,0,0,0,.036.8,2,2,0,0,0,2.46,1.4l.478-.2a2,2,0,0,0,.717-.717,9.7,9.7,0,0,1,1.213-2.049l-.312.4a9.786,9.786,0,0,1,1.063-1.157,2,2,0,0,0,0-2.828,2.012,2.012,0,0,0-1.414-.586,2.147,2.147,0,0,0-1.414.586Z"/><path class="a" d="M193.589,89.062q.254.171.5.357l-.405-.312a9.653,9.653,0,0,1,1.729,1.728l-.313-.4q.273.356.512.734a2.1,2.1,0,0,0,1.195.919,1.516,1.516,0,0,0,.8.036,1.492,1.492,0,0,0,.744-.237,2,2,0,0,0,.717-2.737,11.436,11.436,0,0,0-3.455-3.538,1.5,1.5,0,0,0-.744-.238,1.526,1.526,0,0,0-.8.036,2.047,2.047,0,0,0-1.195.919,2.018,2.018,0,0,0-.2,1.541l.2.478a2.008,2.008,0,0,0,.718.718Z"/><path class="a" d="M164.594,212.157a30.9,30.9,0,0,0,3.188-21.007,23.522,23.522,0,0,0-3.855-9.57c-1.854-2.409-5.182-4.529-8.132-2.627-1.528.985-2.152,2.787-2.9,4.349-.793,1.647-1.626,3.276-2.572,4.841a19.966,19.966,0,0,1-7.188,7.443,12.2,12.2,0,0,1-4.419,1.489,9.743,9.743,0,0,1-2.277.007,7.618,7.618,0,0,0-2.97-.173c-1.581.425-2.475,2.028-3.3,3.307-.772,1.2-1.49,2.43-2.284,3.613a14.449,14.449,0,0,1-3.056,3.43,22.843,22.843,0,0,1-4.849,2.479,18.848,18.848,0,0,0-4.53,2.6c-1.4,1.181-1.494,2.5-1.037,4.2.668,2.483,4.528,1.43,3.858-1.063l-.1-.374q-.12-.942-.251.366l-.085.1a3.566,3.566,0,0,1,.34-.322,11.83,11.83,0,0,1,1.161-.729,39.205,39.205,0,0,1,4.28-2.018,15.943,15.943,0,0,0,6.447-4.9c1.591-2.027,2.764-4.32,4.258-6.412-.02.028.538-.57.14-.406a3.683,3.683,0,0,1,.791.145,13.859,13.859,0,0,0,2.49.209,14.649,14.649,0,0,0,4.386-.762c6.177-2.081,10.241-7.3,13.145-12.89.7-1.351,1.31-2.746,2-4.1.608-1.2,1.067-1.493,2.243-.641,2.19,1.588,3.173,4.746,3.877,7.23a26.734,26.734,0,0,1-2.246,20.168c-1.249,2.253,2.2,4.273,3.454,2.019Z"/><path class="a" d="M43.2,199.236c1.9-1.581,4.825-2.2,7.3-2.387a19.7,19.7,0,0,1,8.992,1.259,12.348,12.348,0,0,1,1.87.993c.7.447,1.3,1.162,2.143,1.289.918.138,2.03-.451,2.942-.612a15.61,15.61,0,0,1,2.993-.19A16.874,16.874,0,0,1,78.2,201.8a15.143,15.143,0,0,1,6.438,8.316c.729,2.463,4.59,1.414,3.857-1.063a19.321,19.321,0,0,0-9.3-11.309,19.528,19.528,0,0,0-6.811-1.907,19.9,19.9,0,0,0-9.155.665l1.946.514C61.686,194,57,192.83,52.455,192.787c-4.224-.04-8.765.865-12.083,3.62-1.982,1.647.861,4.463,2.829,2.829Z"/><path class="a" d="M164.23,35.24A143.6,143.6,0,0,1,190.057,3.674c1.9-1.745-.935-4.568-2.829-2.828a147.407,147.407,0,0,0-26.452,32.375c-1.333,2.21,2.124,4.223,3.454,2.019Z"/><path class="a" d="M188.629,56.405a78.422,78.422,0,0,1,28.664-15.539c2.462-.729,1.414-4.591-1.064-3.857A83.181,83.181,0,0,0,185.8,53.576c-1.959,1.676.882,4.494,2.829,2.829Z"/><path class="a" d="M131.851,25.918c-2.208,2.184-4.674,4.092-7.033,6.106a37.365,37.365,0,0,0-6.752,7.387c-3.455,5.074-5.253,11.22-9.246,15.933a31.953,31.953,0,0,1-7.871,6.438,23.63,23.63,0,0,1-9.268,3.559c-6.419.771-11.452-3.372-15.32-8.017a47.907,47.907,0,0,1-5.231-7.863c-1.424-2.627-2.923-5.442-3.206-8.46-.676-7.212,3.624-13.442,9.243-17.513,4.747-3.44,10.163-5.909,15.4-8.5,3.109-1.538,6.223-3.067,9.32-4.63a85.731,85.731,0,0,1,9.377-4.3A29.364,29.364,0,0,1,122.4,4.023c3.679.155,6.762,2.042,9.411,4.482,2.448,2.256,4.948,5.271,5.334,8.709.421,3.748-2.918,6.327-5.3,8.7-1.824,1.821,1,4.65,2.828,2.828,2.57-2.566,5.746-5.3,6.356-9.086a13.591,13.591,0,0,0-2.717-9.775,26.629,26.629,0,0,0-8.089-7.564A17.939,17.939,0,0,0,119.194.1c-7.632.726-14.428,4.357-21.165,7.725-6.055,3.027-12.249,5.848-18.145,9.181C73.4,20.671,67.5,25.637,64.976,32.857a19.089,19.089,0,0,0-.385,11.875A45.665,45.665,0,0,0,69,53.784C72.39,59.381,77,65.237,83.132,67.967c7.218,3.216,15.04.507,21.263-3.642a33.755,33.755,0,0,0,8.394-7.59,54.34,54.34,0,0,0,5-8.7,43.962,43.962,0,0,1,5.4-8.815,63.141,63.141,0,0,1,7.893-7.251c1.232-1.04,2.457-2.091,3.6-3.225C136.512,26.933,133.684,24.105,131.851,25.918Z"/><path class="a" d="M135.609,10.775c-12.881-4.566-26.843,2.4-37.263,9.663-4.034,2.811-8.4,6.521-10.005,11.334-1.963,5.891.624,12.465,3.092,17.784a4.952,4.952,0,0,1,.647,2.907,7.135,7.135,0,0,1-1.5,3.188,21.5,21.5,0,0,1-7.774,5.774c-2.308,1.141-.284,4.592,2.019,3.454,4.543-2.245,10.079-5.972,11.108-11.352.546-2.858-.648-5.029-1.769-7.572a28.105,28.105,0,0,1-2.386-8.337,10.3,10.3,0,0,1,1.589-7.066,24.79,24.79,0,0,1,4.657-4.9,54.036,54.036,0,0,1,7.383-4.976,69.644,69.644,0,0,1,8.345-4.362c6.532-2.749,13.954-4.1,20.789-1.679,2.431.862,3.477-3,1.064-3.857Z"/><path class="a" d="M74.906,40.511A5.08,5.08,0,0,1,76.851,34.6a5.206,5.206,0,0,1,2.854-.714c.485.027.2.03.12.016.049.009.36.128.095.007.081.037.26.212.078.014.046.049.223.13.1.083-.158-.062.1.225.053.069-.065-.2.065.225.073.263.023.123.04.548.061.86.227,3.248.669,6.48,1.107,9.7.081.6.227,1.431.245,1.868a3.829,3.829,0,0,1,0,.415c-.026.35.054-.228-.023.129a.72.72,0,0,1-.184.422c.212-.155-.144.037-.261.068a2.17,2.17,0,0,1-.605.081c-.219.006-.34-.071-.157.041-.241-.148-.541-.328-.715-.465-2.3-1.814-3.816-4.745-4.992-7.428a2.013,2.013,0,0,0-2.736-.718,2.052,2.052,0,0,0-.718,2.737c1.469,3.351,3.455,6.769,6.5,8.921a5.4,5.4,0,0,0,5.539.283,4.779,4.779,0,0,0,2.323-4.771c-.411-4.045-1.052-8.049-1.377-12.106A4.582,4.582,0,0,0,81.088,30.1a8.051,8.051,0,0,0-5.1.485c-4.026,1.647-6.611,6.82-4.941,10.989a2.062,2.062,0,0,0,2.46,1.4A2.014,2.014,0,0,0,74.906,40.511Z"/><path class="a" d="M7.148,60.45c-2.1,1.264-4.167,2.609-6.14,4.07A2.036,2.036,0,0,0,.29,67.257q5.438,8.093,10.99,16.11a2.051,2.051,0,0,0,2.736.717,2.018,2.018,0,0,0,.718-2.736q-5.563-8.007-10.99-16.11l-.718,2.736C5,66.513,7.062,65.168,9.166,63.9c2.205-1.324.2-4.784-2.018-3.454Z"/><path class="a" d="M18.1,73.808c-1.974-3.086-3.889-6.21-5.8-9.333-1.465-2.388-3.02-4.752-4.356-7.217l-.718,2.736c2.165-1.46,4.346-2.891,6.6-4.21l-2.736-.717C15.6,62.246,20.372,69.282,25.13,76.3c1.437,2.118,4.9.119,3.454-2.019-4.758-7.014-9.533-14.051-14.04-21.23a2.037,2.037,0,0,0-2.736-.718c-2.255,1.319-4.436,2.75-6.6,4.21a2.05,2.05,0,0,0-.718,2.737c1.336,2.465,2.891,4.829,4.356,7.217,1.916,3.123,3.83,6.247,5.8,9.333,1.383,2.162,4.847.158,3.454-2.019Z"/><path class="a" d="M35.541,70.368C31.769,64.6,28.108,58.737,24.177,53.074a2.075,2.075,0,0,0-2.737-.717,31.257,31.257,0,0,0-3.005,1.767c-1.274.759-2.552,1.514-3.815,2.293-2.187,1.349-.18,4.81,2.019,3.454,1.263-.779,2.541-1.534,3.815-2.293a31.257,31.257,0,0,1,3-1.767l-2.736-.718c3.931,5.663,7.592,11.525,11.364,17.294,1.4,2.146,4.868.144,3.454-2.019Z"/><path class="a" d="M23.325,53.531c-.767-1.561-1.577-3.1-2.33-4.67L20.277,51.6c2.093-1.267,4.263-2.417,6.42-3.57l-2.736-.718c4.547,7.277,9.1,14.551,13.58,21.87,1.341,2.192,4.8.185,3.454-2.019-4.479-7.319-9.033-14.593-13.58-21.87a2.046,2.046,0,0,0-2.737-.717c-2.157,1.153-4.327,2.3-6.42,3.57a2.052,2.052,0,0,0-.717,2.736c.753,1.568,1.563,3.109,2.33,4.67,1.134,2.311,4.585.286,3.454-2.019Z"/><path class="a" d="M14.5,83.771q12.326-5.855,24.085-12.813,1.346-.8,2.682-1.61c.236-.143.867-.714,1.18-.684-.086-.008.178.3.28.477,1.146,1.985,2.323,3.952,3.466,5.939,2.315,4.022,4.586,8.069,6.85,12.119q1.667,2.979,3.332,5.958.836,1.491,1.673,2.978.419.746.84,1.489c.118.21.226.438.36.638.2.291.059.356.143.172-.194.428-1.048.665-1.47.876q-1.42.711-2.853,1.4-2.77,1.324-5.583,2.558-5.772,2.535-11.718,4.647c-1.93.682-3.873,1.327-5.833,1.919-.582.176-1.728.773-2.315.55s-1.171-1.7-1.482-2.207q-4.028-6.57-7.845-13.263-1.849-3.242-3.648-6.512-.928-1.687-1.844-3.383c-.288-.533-.9-.961-.3-1.244,2.324-1.1.3-4.551-2.019-3.453a4.128,4.128,0,0,0-1.837,5.36c1.025,2.277,2.381,4.453,3.6,6.635q3.861,6.945,7.948,13.761a54.233,54.233,0,0,0,4.2,6.738c1.649,2,4.006,1.653,6.221.992,4.569-1.362,9.056-3,13.473-4.8q6.85-2.779,13.486-6.059c1.954-.972,3.893-2.083,3.8-4.588A7.127,7.127,0,0,0,62.1,95.18q-1.02-1.806-2.033-3.616c-2.624-4.681-5.229-9.373-7.874-14.042q-1.992-3.515-4.021-7.008c-1.139-1.956-2.215-4.947-4.592-5.65-2.676-.792-5.277,1.613-7.429,2.885q-3.834,2.263-7.734,4.412-7.843,4.319-15.937,8.157C10.158,81.422,12.185,84.871,14.5,83.771Z"/><path class="a" d="M40.412,80.37q3.471,6.59,6.718,13.292a2.018,2.018,0,0,0,2.736.717,2.041,2.041,0,0,0,.718-2.736q-3.248-6.7-6.718-13.292a2,2,0,0,0-3.454,2.019Z"/><path class="a" d="M86.907,142.617a6.7,6.7,0,0,1-3.493-.644,4.4,4.4,0,0,1-2.2-2.859,28.747,28.747,0,0,1-.453-9.3,40.2,40.2,0,0,1,1.919-9.474,49.051,49.051,0,0,1,3.308-7.2A147.861,147.861,0,0,1,95.83,98.031a97.748,97.748,0,0,1,11.018-13.416c4.344-4.306,9.428-9.063,15.5-10.644a9.456,9.456,0,0,1,3.682-.341,5.231,5.231,0,0,1,2.6,1.363c2.077,1.734,2.92,4.037,1.53,6.513-1.476,2.629-4.035,4.737-6.167,6.824a41.091,41.091,0,0,0-6.081,6.876c-3.272,5.08-4.258,11.189-5.334,17.02a64.332,64.332,0,0,1-2.3,9.523,25.793,25.793,0,0,1-5.422,8.915,74.477,74.477,0,0,1-8.324,7.745c-2.766,2.227-5.979,4.143-9.621,4.208-2.571.046-2.579,4.046,0,4,7.536-.134,13.479-5.925,18.565-10.859a35.182,35.182,0,0,0,6.768-8.548,37.578,37.578,0,0,0,3.3-9.456c1.386-6.2,1.806-12.9,4.734-18.635,3.085-6.043,9.374-9.468,13.023-15.086a8.721,8.721,0,0,0,.288-9.482,10.6,10.6,0,0,0-7.233-4.88c-7.036-.856-13.534,4.283-18.5,8.578A87.65,87.65,0,0,0,94.755,92.7c-1.96,2.655-3.825,5.378-5.68,8.107s-3.8,5.445-5.441,8.327a72,72,0,0,0-4.273,8.719,39.515,39.515,0,0,0-2.327,9.564,38.612,38.612,0,0,0-.047,10.795,10.313,10.313,0,0,0,1.578,4.66,9.394,9.394,0,0,0,3.834,3.058,11.8,11.8,0,0,0,4.508.686C89.481,146.717,89.477,142.717,86.907,142.617Z"/><path class="a" d="M88.6,141.984a64.759,64.759,0,0,1,8.646-31.411c5.149-9.036,12.315-16.852,19.66-24.142q6.478-6.429,13.483-12.3c1.978-1.653-.865-4.47-2.828-2.829a195.845,195.845,0,0,0-23.868,23.461c-7.052,8.323-12.813,17.5-16.083,27.973a66.634,66.634,0,0,0-3.01,19.243c-.023,2.575,3.977,2.577,4,0Z"/><path class="a" d="M79.707,120.634a11.934,11.934,0,0,0,1.032,2.386c.495.971,1.026,1.923,1.566,2.869.906,1.591,1.831,3.176,2.813,4.722a2,2,0,0,0,3.454-2.019c-.962-1.514-1.868-3.066-2.757-4.623-.536-.937-1.063-1.881-1.556-2.841-.2-.38-.382-.765-.563-1.153-.076-.164-.15-.477.077.191-.026-.077-.062-.151-.09-.227a3.669,3.669,0,0,1-.119-.368,2,2,0,0,0-3.857,1.063Z"/><path class="a" d="M84.186,114.154c.995,2.221,2.109,4.387,3.1,6.608a2,2,0,0,0,1.2.919,2,2,0,0,0,2.461-1.4,2.3,2.3,0,0,0-.2-1.541c-1-2.221-2.11-4.387-3.106-6.608a2,2,0,0,0-1.195-.919,2.042,2.042,0,0,0-1.541.2,2.019,2.019,0,0,0-.919,1.195,2.3,2.3,0,0,0,.2,1.542Z"/><path class="a" d="M29.7,192.884c.093,9.137,11.36,13.735,18.5,16.265,12.842,4.55,26.679,6.492,40.19,7.739a266.79,266.79,0,0,0,43.589.453c14-1,28.224-2.807,41.7-6.878a58.613,58.613,0,0,0,14.6-6.215c3.253-2.072,6.485-4.893,7.562-8.744a10.213,10.213,0,0,0,.36-2.62c.026-2.575-3.974-2.577-4,0,0,.184-.012.367-.02.551-.006.128-.1.666-.011.167a8.861,8.861,0,0,1-.253,1.065c-.055.176-.118.35-.183.522-.08.214.042-.09.05-.108-.043.1-.086.2-.136.293-.179.342-.356.681-.564,1.008-.107.168-.22.331-.335.494-.255.363.049-.039-.166.221-.273.328-.556.646-.855.951a20.04,20.04,0,0,1-1.851,1.636,44.621,44.621,0,0,1-12.642,6.09c-12.433,4.156-25.664,6.045-38.679,7.2a266.716,266.716,0,0,1-41.875.421c-13.4-.923-26.94-2.643-39.886-6.345a60.734,60.734,0,0,1-14.177-5.658,19.413,19.413,0,0,1-4.446-3.344,7.8,7.8,0,0,1-1.356-1.666c-.208-.327-.385-.665-.564-1.008-.078-.149-.186-.44-.058-.11-.076-.2-.148-.4-.211-.6a8.861,8.861,0,0,1-.253-1.065c.063.353,0,.112-.005-.089s-.024-.419-.026-.629c-.026-2.573-4.026-2.579-4,0Z"/><path class="a" d="M48.271,228.818a126.168,126.168,0,0,0,22.8,5.767,246.108,246.108,0,0,0,27.012,3.01,251.541,251.541,0,0,0,55.276-2.525c8.825-1.455,17.657-3.56,25.794-7.355a2.016,2.016,0,0,0,.718-2.736,2.046,2.046,0,0,0-2.737-.718c-6.92,3.228-14.479,5.076-21.961,6.451a206.4,206.4,0,0,1-26.871,2.945,261.1,261.1,0,0,1-53.3-2.463,131.773,131.773,0,0,1-25.671-6.233c-2.416-.9-3.459,2.967-1.063,3.857Z"/><path class="a" d="M118.468,256.055v79.19c0,1.132.019,2.267,0,3.4-.084,5.016-6.419,7.524-9.741,3.59-1.3-1.538-1.287-3.295-1.287-5.148v-76c0-1.547,0-3.094,0-4.64.01-3.5,2.825-6.495,6.5-5.824a5.58,5.58,0,0,1,4.532,5.431c.058,2.57,4.058,2.58,4,0-.16-7.149-8-11.917-14.316-8.215-3.279,1.92-4.712,5.345-4.712,9v68.366c0,4.427-.031,8.856,0,13.284a9.516,9.516,0,1,0,19.028-.014c.031-4.487,0-8.975,0-13.461V256.055c0-2.573-4-2.578-4,0Z"/><path class="a" d="M143.876,338.334l.43-10.208.988-23.494,1.111-26.409.8-19.008c.048-1.132.075-2.266.143-3.4a5.565,5.565,0,0,1,9.879-3.106c1.248,1.613,1.15,3.417,1.071,5.3l-.269,6.4-.943,22.406-1.125,26.727-.858,20.394c-.065,1.545-.125,3.091-.2,4.636a5.521,5.521,0,1,1-11.032-.24c.051-2.575-3.949-2.575-4,0a9.614,9.614,0,0,0,14.034,8.685c3.365-1.785,4.861-5.2,5.015-8.84l.658-15.638,1.124-26.726,1.092-25.941c.186-4.424.4-8.848.558-13.273a9.515,9.515,0,1,0-19.016-.617c-.219,4.481-.377,8.966-.566,13.449l-1.094,26-1.122,26.679-.651,15.463-.032.759C139.768,340.908,143.768,340.9,143.876,338.334Z"/><path class="a" d="M86.032,338.334l-.463-10.99-1.054-25.058-1.147-27.255-.739-17.579c-.1-2.314-.277-4.545-1.618-6.565-3.879-5.843-12.989-5.618-16.33.679a12.242,12.242,0,0,0-1.064,6.6l.289,6.88,1.008,23.964,1.163,27.626.817,19.415c.043,1.029.06,2.063.134,3.091.5,7.015,8.46,11.493,14.568,7.562a9.685,9.685,0,0,0,4.436-8.366c-.05-2.57-4.051-2.579-4,0a5.522,5.522,0,0,1-10.6,2.458,11.655,11.655,0,0,1-.506-4L70.2,319.5l-1.1-26.046L68.07,268.935c-.173-4.115-.376-8.23-.52-12.347-.146-4.181,4.063-7.435,8.007-5.411,2.3,1.181,2.95,3.389,3.049,5.742l.652,15.487,1.079,25.648L81.4,323.216,82,337.652l.029.682C82.14,340.9,86.14,340.912,86.032,338.334Z"/><path class="a" d="M192.205,194.852q-2.052,26.893-3.894,53.8-1.775,25.448-3.564,50.894-.873,12.136-1.8,24.268-.449,5.835-.918,11.669-.235,2.924-.477,5.847c-.042.512-.058,1.026-.106,1.537,0-.016.064-.208-.04.163-.056.2-.1.4-.159.607-.044.152-.1.3-.157.448.141-.377-.02.046-.091.185a10.768,10.768,0,0,1-.589,1c-.062.094-.371.509-.149.225-.129.165-.266.324-.4.481-.291.328-.6.64-.92.939a21.736,21.736,0,0,1-4.769,3.194,66.294,66.294,0,0,1-15.219,5.246,193.9,193.9,0,0,1-40.507,4.826,218.76,218.76,0,0,1-41.114-2.745,120.425,120.425,0,0,1-18.206-4.292A51.308,51.308,0,0,1,52.3,350.4a25.151,25.151,0,0,1-4.96-3.149c-.337-.3-.664-.6-.973-.928q-.189-.2-.371-.408c-.087-.1-.464-.582-.245-.286a9.5,9.5,0,0,1-.605-.922c-.095-.166-.18-.337-.269-.507-.037-.072-.069-.147-.1-.22-.1-.223.11.321-.008-.041-.106-.326-.2-.649-.276-.983-.109-.468-.006.191-.032-.164-.013-.184-.017-.367-.028-.55-.119-1.908-.3-3.814-.45-5.72q-.949-11.985-1.87-23.973-1.952-25.428-3.783-50.865-1.934-26.877-3.733-53.761-.447-6.7-.887-13.4c-.167-2.555-4.169-2.574-4,0q1.817,27.726,3.783,55.44,1.87,26.388,3.871,52.766.942,12.435,1.916,24.869.465,5.931.936,11.861c.186,2.335.162,4.62,1.21,6.763,1.769,3.618,5.594,6.027,9.083,7.747a75.189,75.189,0,0,0,16.216,5.449,202.21,202.21,0,0,0,41.859,4.8,222.757,222.757,0,0,0,42.146-3.095,113.721,113.721,0,0,0,18.253-4.494c4.475-1.566,9.093-3.515,12.646-6.742a12.4,12.4,0,0,0,3.267-4.583c.886-2.246.744-4.936.937-7.3q.981-12.06,1.874-24.127,1.9-25.536,3.628-51.086,1.886-27.156,3.853-54.306.5-6.815,1.024-13.627c.2-2.568-3.805-2.555-4,0Z"/><path class="a" d="M118.1,213.192c-4.771-6.276-5.732-14.6-3.519-22.067a20.757,20.757,0,0,1,1.747-4.244c.81-1.452,1.425-2.364,3.089-2.87.568-.172-.107-.113.419-.061.31.03-.3-.144.226.031a3.274,3.274,0,0,1,1.041.434c1.117.614,2.143,1.388,3.2,2.1a28.32,28.32,0,0,0,11.818,4.876,2.067,2.067,0,0,0,2.461-1.4,2.015,2.015,0,0,0-1.4-2.46,26.015,26.015,0,0,1-11.075-4.618c-2.207-1.508-4.553-3.4-7.4-2.843-4.111.8-6.077,4.695-7.414,8.282a30.486,30.486,0,0,0-1.787,12.369,26.509,26.509,0,0,0,5.141,14.484,2.064,2.064,0,0,0,2.736.718,2.014,2.014,0,0,0,.718-2.737Z"/><path class="a" d="M128.877,180.637a19.249,19.249,0,0,1,6.654-3.288,16.338,16.338,0,0,1,5.769-.261c4.265.532,8.815,2.135,11.792,5.347,1.753,1.892,4.577-.941,2.828-2.828-3.648-3.937-9.122-5.827-14.33-6.483-5.423-.684-10.3.98-14.732,4.059-2.1,1.459-.1,4.928,2.019,3.454Z"/></svg>