<svg xmlns="http://www.w3.org/2000/svg" viewBox="28 125 102 100" width="100" height="100">
  <g fill="#74c66d">
    <path d="M52.48,150.862a.773.773,0,0,0,1.084-.062,35.593,35.593,0,0,1,21.3-10.981A40.214,40.214,0,0,1,87.528,140a37.244,37.244,0,0,1,6.068,1.67,28.108,28.108,0,0,1,3.175,1.364l-2.393,4.89a.771.771,0,0,0,.722,1.108c5-.157,9.751-.366,16.437-.358a.884.884,0,0,0,.786-1.29c-2.588-5-4.989-9.7-8.523-15.94a.779.779,0,0,0-1.378.042l-2.3,4.707c-.377-.185-.746-.387-1.136-.542l-.957-.409c-.588-.249-1.17-.512-1.777-.711a44.9,44.9,0,0,0-7.36-2.025,47.8,47.8,0,0,0-15.109-.225A43.244,43.244,0,0,0,47.868,145.74a.786.786,0,0,0,.066,1.114Z"/>
    <path d="M115.721,164.051a.776.776,0,0,0-.468.981,35.588,35.588,0,0,1-.635,23.956A40.182,40.182,0,0,1,108.361,200a37.2,37.2,0,0,1-4.386,4.513,27.936,27.936,0,0,1-2.725,2.126l-3.132-4.452a.772.772,0,0,0-1.319.1c-2.27,4.455-4.376,8.721-7.6,14.577a.884.884,0,0,0,.752,1.31c5.628.139,10.908.3,18.075.207a.78.78,0,0,0,.627-1.228l-3.017-4.286c.344-.241.7-.467,1.023-.734l.819-.642c.5-.4,1.013-.779,1.479-1.215a44.809,44.809,0,0,0,5.32-5.475,47.8,47.8,0,0,0,7.473-13.132,43.244,43.244,0,0,0,.684-29.19.786.786,0,0,0-1.009-.479Z"/>
    <path d="M73.559,212.066a.773.773,0,0,0-.62-.891,35.591,35.591,0,0,1-20.5-12.4,40.221,40.221,0,0,1-6.473-10.885,37.213,37.213,0,0,1-1.752-6.045,28.063,28.063,0,0,1-.5-3.419l5.419-.52a.772.772,0,0,0,.566-1.195c-2.75-4.177-5.415-8.117-8.907-13.819a.885.885,0,0,0-1.511,0c-2.905,4.822-5.659,9.331-9.122,15.6a.78.78,0,0,0,.757,1.153l5.217-.5c.04.418.06.838.132,1.252l.152,1.029c.1.631.177,1.265.325,1.886a44.79,44.79,0,0,0,2.126,7.332,47.808,47.808,0,0,0,7.715,12.992,43.248,43.248,0,0,0,25.029,15.036.785.785,0,0,0,.915-.64Z"/>
  </g>
</svg>
