<?xml version="1.0" encoding="UTF-8"?><svg id="b" xmlns="http://www.w3.org/2000/svg" width="262.055" height="224.566" viewBox="0 0 262.055 224.566"><defs><style>.e{fill:#211715;stroke-width:0px;}</style></defs><g id="c"><g id="d"><path class="e" d="m89.074,87.196c-.005,8.462-.252,16.933-.984,25.366-.5,5.756-1.184,11.443-2.505,17.082-.675,2.883-1.478,5.718-2.02,8.634-.706,3.797-1.238,7.637-1.577,11.484-.264,3-.499,6.029.197,8.989.642,2.73,1.944,5.358,3.62,7.599,4.681,6.261,11.908,9.839,19.729,9.825,3.088-.006,3.094-4.806,0-4.8-6.049.011-11.732-2.585-15.507-7.352-1.491-1.883-2.578-4.032-3.152-6.299-.073-.287-.134-.577-.194-.867-.025-.122-.045-.246-.066-.369-.071-.411.031.315-.017-.094-.067-.565-.087-1.132-.082-1.7.013-1.646.129-3.293.272-4.931.312-3.55.811-7.083,1.476-10.584.522-2.749,1.281-5.424,1.923-8.144,1.304-5.528,2.019-11.204,2.556-16.853.852-8.967,1.126-17.983,1.131-26.987.002-3.089-4.798-3.094-4.8,0h0Z"/><path class="e" d="m220.704,86.346c.211,15.053,1.916,30.152,6.046,44.659,3.077,10.808,8.737,25.275-.231,34.813-4.112,4.373-10.005,6.559-15.965,5.827-1.289-.158-2.4,1.216-2.4,2.4,0,1.429,1.108,2.241,2.4,2.4,6.114.751,12.271-1.303,17.043-5.11,4.946-3.946,7.822-9.667,8.397-15.926.645-7.027-1.258-14.177-3.201-20.865-2.104-7.246-3.991-14.478-5.183-21.939-1.387-8.681-1.983-17.474-2.106-26.259-.043-3.086-4.843-3.095-4.8,0h0Z"/><path class="e" d="m194.086,14.446c2.037,1.21,3.74,2.682,5.413,4.351,1.882,1.877,3.85,3.688,5.611,5.681,3.453,3.906,6.164,8.461,8.375,13.168,2.329,4.958,4.047,10.216,5.213,15.566,1,4.587,1.39,9.204,1.647,13.881.353,6.409.552,12.838.353,19.255-.096,3.09,4.704,3.087,4.8,0,.185-5.955.021-11.92-.28-17.868-.254-5.019-.6-10.018-1.565-14.959-2.178-11.15-6.767-22.206-13.977-31.052-1.954-2.397-4.217-4.488-6.396-6.674-2.075-2.082-4.237-3.983-6.774-5.491-2.662-1.582-5.079,2.566-2.423,4.145h0Z"/><path class="e" d="m187.049,5.654C176.818,1.527,165.82-.423,154.78.077c-11.23.509-22.264,3.971-32.06,9.424-7.356,4.095-13.769,9.342-18.746,16.156-5.182,7.095-8.676,15.385-10.991,23.824-3.356,12.234-4.312,25.078-3.91,37.72.098,3.081,4.898,3.095,4.8,0-.611-19.217,1.765-40.01,12.447-56.505,4.026-6.217,9.345-11.243,15.678-15.196,8.683-5.42,18.662-9.202,28.867-10.32,11.886-1.303,23.863.647,34.908,5.103,1.203.485,2.637-.528,2.952-1.676.377-1.371-.469-2.465-1.676-2.952h0Z"/><path class="e" d="m176.075,43.602c1.84,6.964,3.653,14.364,7.125,20.73,3.708,6.797,8.858,12.874,15.037,17.544,2.962,2.238,6.243,4.082,9.796,5.195,2.955.926,4.219-3.707,1.276-4.629-5.958-1.867-11.019-6.21-15.111-10.791-4.498-5.036-7.732-10.73-9.888-17.104-1.361-4.024-2.521-8.116-3.606-12.222-.788-2.984-5.42-1.718-4.629,1.276h0Z"/><path class="e" d="m176.114,41.201c-4.531,6.083-10.082,11.469-16.396,15.681-3.249,2.168-6.689,4.046-10.269,5.608-1.688.737-3.422,1.387-5.173,1.959-.365.119-.764.277-1.151.314-.033.003-.58-.03-.59-.025-.266.15-.018-.226.002-.002-.09-.997.361.563.3.579.014-.004.041-1.105.057-1.274.372-4.019,1.466-7.948,1.963-11.954.269-2.167-2.744-3.026-4.097-1.697-9.399,9.228-18.943,18.355-29.134,26.71-1.003.822-.853,2.541,0,3.394.992.992,2.389.824,3.394,0,10.192-8.356,19.736-17.483,29.134-26.71l-4.097-1.697c-.478,3.855-1.592,7.952-1.963,11.954-.193,2.08.321,3.941,2.271,4.98,2.203,1.175,4.726.247,6.886-.533,8.439-3.049,16.195-7.678,22.885-13.658,3.769-3.369,7.107-7.158,10.124-11.209.775-1.04.17-2.681-.861-3.284-1.224-.716-2.507-.182-3.284.861h0Z"/><path class="e" d="m205.784,110.646c-.765,3.661-2.125,7.15-3.481,10.42.291-.701.039-.092-.04.077-.103.22-.203.441-.309.661-.245.509-.502,1.013-.767,1.512-.638,1.201-1.32,2.378-2.033,3.536-3.688,5.996-8.177,11.632-13.652,16.093-2.999,2.444-6.417,4.386-10.177,5.236-3.012.682-1.737,5.31,1.276,4.629,7.698-1.742,14.111-7.373,19.139-13.198,4.15-4.808,8.046-10.23,10.668-16.046.164-.364.321-.732.473-1.101.066-.16.351-.807.075-.187.426-.96.836-1.928,1.208-2.911.918-2.422,1.719-4.908,2.249-7.445.63-3.014-3.996-4.303-4.629-1.276h0Z"/><path class="e" d="m105.519,111.354c2.991,13.44,10.447,26.249,21.337,34.799,1.018.8,2.4.994,3.394,0,.832-.832,1.025-2.589,0-3.394-10.316-8.099-17.27-19.949-20.103-32.681-.671-3.014-5.299-1.738-4.629,1.276h0Z"/><path class="e" d="m109.304,82.689c-3.254-2.977-8.032-3.622-12.02-1.755-2.961,1.386-4.688,4.256-5.462,7.336-1.812,7.208-.027,15.427,4.032,21.592,2.734,4.152,7.095,7.969,12.419,7.253,1.284-.173,2.4-.98,2.4-2.4,0-1.163-1.106-2.574-2.4-2.4-6.277.843-9.688-6.552-11.314-11.471-.929-2.809-1.176-5.789-.935-8.731.115-1.401.38-2.864.929-4.165.166-.393.39-.752.602-1.121.081-.141.327-.462.083-.153.163-.207.343-.403.53-.588,1.84-1.821,5.618-1.946,7.742-.002,2.275,2.082,5.679-1.303,3.394-3.394h0Z"/><path class="e" d="m210.373,86.476c1.924-1.733,5.133-1.84,7.238-.357.609.429.867.761,1.283,1.488.662,1.155.982,2.515,1.18,3.823.825,5.458-.696,11.206-3.58,15.858-1.655,2.669-4.559,6.001-8.082,5.5-1.282-.182-2.578.314-2.952,1.676-.309,1.125.385,2.769,1.676,2.952,9.072,1.291,14.345-7.653,16.775-15.074,1.233-3.764,1.417-7.931.845-11.831-.483-3.299-1.795-6.505-4.609-8.459-3.977-2.763-9.652-2.138-13.169,1.03-2.3,2.072,1.103,5.458,3.394,3.394h0Z"/><path class="e" d="m157.499,103.769c.432,1.649.847,3.323,1.095,5.011l-.086-.638c.029.231.042.459.019.692l.086-.638c-.016.108-.04.208-.076.311l.242-.573c-.032.073-.066.134-.11.2l.375-.486c-.052.063-.1.111-.164.161l.486-.375c-.127.081-.26.147-.397.21l.573-.242c-.218.091-.435.158-.669.195l.638-.086c-.211.025-.417.023-.628-.001l.638.086c-.237-.033-.469-.091-.706-.122-.67-.09-1.239-.115-1.849.242-.498.291-.973.862-1.103,1.434-.14.614-.11,1.304.242,1.849.312.484.835,1.022,1.434,1.103.524.071,1.032.204,1.565.228.809.035,1.564-.211,2.287-.541.89-.407,1.584-1.197,1.82-2.156.2-.811.113-1.53-.024-2.342-.273-1.614-.646-3.214-1.061-4.798-.318-1.214-1.729-2.072-2.952-1.676-1.25.404-2.018,1.651-1.676,2.952h0Z"/><path class="e" d="m130.84,89.623c-.837,2.719-.291,8.975,4.86,9.508,6.809-.041,7.172-7.604,4.879-11.16-1.877-2.912-7.395-4.122-9.74,1.653Z"/><path class="e" d="m185.368,89.623c.837,2.719.292,8.975-4.86,9.507-6.809-.041-7.172-7.604-4.88-11.16,1.877-2.911,7.395-4.122,9.74,1.653Z"/><path class="e" d="m151.233,128.719c.371-.196.744-.384,1.124-.561.08-.037.475-.192.11-.051-.391.152.108-.038.148-.052.274-.098.548-.196.827-.281.753-.231,1.524-.396,2.302-.518-.34.053.127-.015.248-.028.226-.024.453-.045.68-.062.549-.041,1.098-.061,1.648-.064,1.932-.012,3.128.079,4.927.642.318.1.627.22.939.336-.56-.21.063.04.267.148.192.101.381.208.564.324.195.123.829.604.111.045,1.021.796,2.398.996,3.394,0,.829-.829,1.028-2.593,0-3.394-2.813-2.192-6.373-2.877-9.883-2.9-3.464-.022-6.765.654-9.828,2.272-1.146.605-1.495,2.199-.861,3.284.679,1.16,2.133,1.468,3.284.861h0Z"/><path class="e" d="m201.307,167.734c-4.149-1.628-8.573-2.907-12.308-5.398-2.073-1.383-3.487-3.174-4.012-5.651-.492-2.325-.407-4.855-.419-7.225-.016-3.088-4.816-3.094-4.8,0,.015,2.819.028,5.73.591,8.502.672,3.31,2.729,5.992,5.4,7.949,4.223,3.094,9.448,4.56,14.272,6.453,1.207.474,2.635-.52,2.952-1.676.374-1.361-.465-2.477-1.676-2.952h0Z"/><path class="e" d="m47.148,131.99c-1.329.793-2.691,1.303-4.147.549-.819-.424-1.749-1.405-2.462-2.353-2.133-2.834-3.827-6.376-4.691-9.811-.796-3.165-.419-6.27.464-9.37.998-3.505,2.823-7.137,2.672-10.848-.153-3.758-2.154-7.249-5.388-9.198-3.341-2.013-7.595-1.993-11.105-.451s-5.912,4.464-7.095,8.07c-.617,1.88-.87,3.902-.9,5.876-.025,1.591.454,3.371.205,4.938-.405,2.553-4.087,4.002-6.037,2.94-1.233-.672-1.987-2.106-2.54-3.341-.714-1.594-1.151-3.374-1.283-5.114-.503-6.65,2.806-12.965,7.507-17.485,4.567-4.391,10.671-7.106,17.065-6.822,6.794.302,13.136,4.106,16.573,9.984,1.837,3.142,2.687,6.702,2.404,10.334-.26,3.342-1.613,6.705-2.679,9.863-1.23,3.64-2.295,7.182-1.022,10.994.395,1.184.99,2.254,1.603,3.332.79,1.389,1.972,3.008,2.227,4.618.213,1.346-.236,2.534-1.37,3.293-2.555,1.709-.154,5.869,2.423,4.145,3.696-2.473,4.623-6.729,2.842-10.713-1.312-2.935-3.616-5.507-3.541-8.874.042-1.892.868-3.748,1.467-5.52.559-1.653,1.101-3.311,1.588-4.987,1.216-4.183,1.733-8.287.745-12.583-1.791-7.786-7.823-14.115-15.147-17.029-7.231-2.877-15.547-1.904-22.259,1.855-6.533,3.659-11.804,9.869-14.134,17.005-1.247,3.819-1.478,7.93-.625,11.859.766,3.527,2.589,7.752,5.995,9.47,3.627,1.829,8.185.606,10.86-2.345,1.392-1.536,2.223-3.502,2.155-5.594-.06-1.852-.306-3.654-.166-5.515.278-3.69,1.938-7.17,5.596-8.498,3.241-1.177,7.027-.164,8.611,3.056,1.686,3.427-.476,7.448-1.506,10.768-1.114,3.593-1.771,7.238-1.246,10.996.578,4.137,2.456,8.263,4.674,11.779,1.911,3.03,4.468,5.969,8.234,6.41,2.088.244,4.084-.482,5.857-1.54,2.651-1.581.239-5.732-2.423-4.145Z"/><path class="e" d="m58.85,151.684c-.198.12-.404.224-.603.34-.06.035-.419.199-.049.039-.339.146-.708.253-1.068.336-.144.033-.289.061-.434.087.535-.097-.16.005-.235.008-.362.016-.728.008-1.087-.036.556.068-.145-.049-.216-.066-.141-.035-.28-.074-.418-.118-.004-.001-.61-.274-.316-.112.3.166-.265-.166-.257-.161-.113-.067-.225-.137-.334-.21-.01-.007-.502-.391-.224-.154s-.183-.172-.19-.179c-.136-.126-.267-.257-.393-.393-.104-.112-.199-.23-.299-.345-.235-.269.289.473,0-.019-.15-.254-.314-.495-.45-.758-.037-.072-.15-.245-.152-.313.01.412.094.263.015.017-.094-.295-.192-.585-.26-.888-.03-.132-.04-.276-.078-.405-.097-.329.033.607.015.074-.009-.265-.029-.525-.02-.791.004-.103.015-.206.018-.309.018-.502-.142.395-.017.112.127-.288.171-.675.267-.985-.151.487-.043.1.028-.038.073-.144.152-.285.236-.422.069-.112.144-.218.216-.328-.296.454.063-.073.127-.144.21-.235.437-.455.674-.663.081-.071.456-.351.115-.105.143-.103.288-.205.437-.3.297-.19.608-.347.922-.508.206-.106.291-.276-.067.019.063-.052.238-.093.324-.124.359-.129.727-.236,1.101-.313.133-.028.268-.054.403-.073-.578.082.131.011.211.009.148-.004.294.005.442.004.667-.007-.233-.085.156.003.355.08.705.158,1.045.291-.454-.177.087.06.15.095.159.087.309.189.465.283.36.216.022.003-.048-.054.141.115.278.233.41.357.199.188.372.398.559.597.247.264-.307-.468.012.022.067.102.136.202.201.306.097.156.188.315.273.477.064.122.283.64.067.093.124.314.232.632.316.959.038.148.066.299.101.448.138.584-.022-.51.016.088.021.336.034.669.014,1.006-.03.515-.028-.001.017,0,.005,0-.104.517-.11.54-.038.152-.082.301-.131.449-.189.57.13-.144-.1.255-.169.292-.331.583-.519.864.296-.441-.081.092-.138.155-.14.155-.286.304-.438.446-.103.096-.21.187-.316.28.377-.326-.3.2-.385.255-1.054.679-1.584,2.162-.861,3.284.68,1.054,2.155,1.588,3.284.861,3.484-2.243,5.271-6.225,4.172-10.293-1.03-3.813-4.395-6.834-8.435-6.869-3.458-.03-7.022,1.969-8.827,4.908s-1.464,6.916.499,9.698c1.294,1.834,3.179,3.326,5.411,3.798,2.475.524,5.016.066,7.179-1.241,1.074-.649,1.571-2.183.861-3.284-.696-1.079-2.134-1.556-3.284-.861Z"/><path class="e" d="m59.396,223.377c8.225-15.04,18.802-28.79,33.026-38.602,4.482-3.092,9.211-5.755,14.153-8.037,1.177-.543,1.47-2.242.861-3.284-.706-1.208-2.102-1.406-3.284-.861-16.59,7.661-30.27,19.924-40.641,34.883-3.005,4.334-5.73,8.853-8.26,13.478-1.483,2.711,2.66,5.137,4.145,2.423h0Z"/><path class="e" d="m261.742,220.955c-5.04-9.272-10.924-18.129-18.058-25.932-6.763-7.395-14.693-13.794-23.399-18.766-6.025-3.441-12.48-6.119-18.977-8.523-1.216-.45-2.63.503-2.952,1.676-.369,1.341.456,2.501,1.676,2.952,10.179,3.766,19.893,8.488,28.501,15.162,7.576,5.875,14.179,12.981,19.737,20.779,3.433,4.816,6.504,9.879,9.328,15.073,1.476,2.715,5.622.295,4.145-2.423h0Z"/><path class="e" d="m150.484,183.236c3.81.431,7.629.696,11.461.494,3.523-.186,7.033-.571,10.521-1.098,6.861-1.037,13.678-2.71,20.128-5.29,3.392-1.357,6.6-2.999,9.771-4.804,2.684-1.528.269-5.677-2.423-4.145-14.744,8.393-32.608,11.948-49.459,10.042-1.29-.146-2.4,1.207-2.4,2.4,0,1.419,1.106,2.254,2.4,2.4h0Z"/><path class="e" d="m152.997,157.332c1.085-3.116.654-6.485-1.332-9.141-2.059-2.754-5.103-4.423-8.326-5.464-6.632-2.143-14.247-1.472-20.792.736-5.607,1.892-10.092,5.531-13.023,10.688-3.426,6.028-5.197,13.057-6.473,19.818-.724,3.838-1.262,7.715-1.669,11.599-.364,3.477-.343,7.011-1.269,10.398-.833,3.048-2.151,6.106-2.241,9.305-.083,2.94,1.464,4.968,3.69,6.676,2.544,1.952,5.435,3.43,8.322,4.804,1.537.731,3.092,1.424,4.658,2.091.943.401,1.736.765,2.759.855.697.061,1.396.11,2.094.16,7.556.544,13.605-4.894,16.42-11.488,1.099-2.574,1.732-5.239,2.351-7.956.269-1.181.531-2.364.819-3.541.154-.628.261-1.357.746-1.805.883-.815,2.437-.893,3.56-1.02,1.64-.185,3.311-.393,4.759-1.255,3.115-1.856,4.347-6.257,3.052-9.572-.67-1.714-1.81-3.127-3.383-4.093-2.639-1.622-5.053,2.528-2.423,4.145,1.794,1.103,2.281,4.536.036,5.536-.936.417-2.052.429-3.052.554-1.545.194-3.055.481-4.442,1.232-2.151,1.166-3.055,3.206-3.592,5.46-.497,2.087-.935,4.189-1.452,6.271-1.378,5.552-4.51,11.298-10.547,12.61-1.06.23-2.132.177-3.206.095-.525-.04-1.24.017-1.741-.133-.599-.179-1.318-.619-1.921-.885-2.747-1.21-5.473-2.497-8.069-4.006-.956-.556-1.992-1.181-2.83-1.821-.424-.324-.82-.686-1.195-1.065.027.027-.468-.548-.258-.273.225.295-.35-.62-.16-.203-.331-.728-.24-1.536-.081-2.44.25-1.42.706-2.806,1.128-4.181.965-3.141,1.581-6.114,1.819-9.396.241-3.323.571-6.645,1.045-9.943.915-6.373,2.224-12.765,4.471-18.814,1.724-4.64,4.213-9.207,8.479-11.859,2.228-1.385,4.647-2.203,7.209-2.79,3.309-.759,6.694-1.173,10.09-.895,4.946.404,13.627,3.162,11.34,9.73-.426,1.224.486,2.625,1.676,2.952,1.322.363,2.524-.448,2.952-1.676h0Z"/><path class="e" d="m133.906,157.846c3.215.218,6.437.453,9.631.887,1.33.181,2.656.402,3.976.648,1.231.229,2.653.422,3.743.909.499.223.975.544,1.2.753.183.17.365.35.518.548-.219-.282.182.321.182.321.42.74.479,1.433.458,2.459-.011.559.147-.481-.007.125-.054.212-.091.427-.15.638-.188.663-.161.608-.528,1.218-.452.752-.986,1.2-1.959,1.429-3.005.709-1.733,5.339,1.276,4.629,6.478-1.529,8.247-10.843,3.311-15.015-2.717-2.297-6.509-2.664-9.903-3.17-3.897-.581-7.819-.914-11.748-1.181-1.295-.088-2.4,1.166-2.4,2.4,0,1.372,1.102,2.312,2.4,2.4h0Z"/><path class="e" d="m133.613,170.206c3.049.158,6.095.395,9.127.745,1.415.163,2.826.36,4.228.609,1.309.232,2.57.459,3.566,1.085.053.033.365.279.084.047.085.07.172.146.248.225.094.098.511.621.243.232.113.164.213.333.313.504.064.11.116.228.17.343-.083-.177-.097-.315-.039-.055.045.202.121.398.166.6.039.171.098.785.04.108.038.44.098.901.032,1.342-.109.735-.81,1.855-1.396,2.263-.143.099-.302.18-.455.261.051-.027.24-.098-.014-.015-.253.082-.034.03.04.025-.162.009-.316.001-.479-.009-.838-.051-1.677-.188-2.513-.276-3.374-.354-6.733-.483-10.125-.431-3.086.047-3.095,4.847,0,4.8,3.505-.054,6.972.095,10.458.467,1.893.202,3.547.453,5.285-.539,1.663-.949,2.847-2.587,3.522-4.346.93-2.421.545-5.523-.983-7.631-2.142-2.955-5.711-3.495-9.089-3.982-4.122-.594-8.273-.959-12.431-1.175-1.296-.067-2.4,1.151-2.4,2.4,0,1.356,1.1,2.332,2.4,2.4h0Z"/></g></g></svg>