<svg xmlns="http://www.w3.org/2000/svg" width="234.792" height="287.093" viewBox="0 0 234.792 287.093"><defs><style>.a{fill:#211715;}.b{fill:#74c66d;}.c{fill:#7abee6;}</style></defs><path class="a" d="M115,28.213V83.152c0,3.089,4.8,3.094,4.8,0V28.213c0-3.089-4.8-3.094-4.8,0Z"/><path class="b" d="M173.679,10.362A3.947,3.947,0,0,0,171.505,6.6c-4.453-2.887-8.777-3.508-15.926-4.042a42.489,42.489,0,0,0-24.7,5.589c-6.051,3.589-9.025,8.275-11.231,12.8-1.9,3.9-1.923,7.33-2.225,8.9a1.491,1.491,0,0,0,.644,1.5c10.518,6.775,28.191,8.81,40.023,3.216C166.883,30.394,173.026,20.361,173.679,10.362Z"/><path class="b" d="M61.12,10.362A3.948,3.948,0,0,1,63.3,6.6c4.453-2.887,8.777-3.508,15.926-4.042a42.489,42.489,0,0,1,24.7,5.589c6.051,3.589,9.025,8.275,11.231,12.8,1.9,3.9,1.923,7.33,2.225,8.9a1.493,1.493,0,0,1-.644,1.5c-10.518,6.775-28.191,8.81-40.023,3.216C67.917,30.394,61.774,20.361,61.12,10.362Z"/><path class="a" d="M176.079,10.362c.157-5.455-6.468-7.964-10.888-8.983A54.468,54.468,0,0,0,147.807.257c-9.711,1-19.977,4.915-26.138,12.81A30.072,30.072,0,0,0,115.308,27.7c-.058.44-.1.883-.165,1.322.067-.463,0-.034-.021.085A6.2,6.2,0,0,0,115,30.168c.057,1.8,1.258,2.9,2.7,3.767a40.678,40.678,0,0,0,6.861,3.215c9.725,3.584,21.385,4.331,31.261.9,11.748-4.08,19.378-15.473,20.259-27.689a2.421,2.421,0,0,0-2.4-2.4,2.447,2.447,0,0,0-2.4,2.4c-.636,8.818-5.781,17.708-13.757,21.8-7.907,4.057-17.941,3.962-26.4,1.949A43.678,43.678,0,0,1,124.5,32c-.885-.367-1.753-.781-2.6-1.222q-.6-.313-1.2-.651c-.24-.137-.474-.3-.721-.425q-.215-.129-.424-.262a.743.743,0,0,1,.214.637c.153.212-.006.177.059-.194.051-.285.079-.576.116-.863.044-.344.08-.689.127-1.033a26.007,26.007,0,0,1,.637-3.1,25.277,25.277,0,0,1,2.934-6.284c4.39-7.178,11.971-11.087,19.924-12.844a49.7,49.7,0,0,1,17.174-.317,25.574,25.574,0,0,1,6.547,1.607c1.5.626,4.042,1.606,3.993,3.315C171.191,13.452,175.991,13.45,176.079,10.362Z"/><path class="a" d="M63.52,10.362c-.046-1.622,2.138-2.471,3.551-3.118a22.7,22.7,0,0,1,5.651-1.6,51.549,51.549,0,0,1,15.294-.468c7.982,1.072,16.429,4.461,21.5,11a25.45,25.45,0,0,1,5.22,11.839c.025.183.279,2.282.3,2.28l0-.428q.454-.622.074-.335c-.116-.025-.608.369-.713.431q-.732.428-1.486.819a37.063,37.063,0,0,1-6.01,2.446c-8.6,2.7-18.407,3.168-26.972.079-9.439-3.4-15.7-13.126-16.4-22.943a2.459,2.459,0,0,0-2.4-2.4,2.421,2.421,0,0,0-2.4,2.4c.765,10.6,6.821,21.448,16.62,26.185,9.588,4.636,21.316,4.551,31.417,1.727a46.5,46.5,0,0,0,7.332-2.736c2.269-1.072,5.66-2.432,5.713-5.37a5.878,5.878,0,0,0-.108-.97c-.012-.077-.112-.7-.037-.176-.063-.439-.107-.882-.165-1.322a29.116,29.116,0,0,0-.771-4.091,29.92,29.92,0,0,0-3.418-7.431C110.1,7.674,100.994,2.756,91.394.9a55.858,55.858,0,0,0-19.948.116c-4.825.821-12.9,3.263-12.726,9.348C58.809,13.445,63.609,13.457,63.52,10.362Z"/><path class="c" d="M117.4,54.687c-68,0-115,52.5-115,113.931,0,68.734,48.011,116.069,115,116.069s115-47.335,115-116.069C232.4,107.184,185.4,54.684,117.4,54.687Z"/><path class="b" d="M134.235,99.853q.081-.121.159-.246c2.693-4.267,2.093-9.607.136-14.054a15.578,15.578,0,0,0-9.151-8.4c-12.132-4.458-34.9-7.545-49.322-15.385C31.085,78.084,2.4,120.625,2.4,168.618q0,.981.013,1.957a40.349,40.349,0,0,1,11.813,5.4,44.187,44.187,0,0,1,9.585,10.8c2.779,4.155,4.782,8.658,7.262,12.975a13.881,13.881,0,0,0,3.827,4.525c4.751,3.37,11.8.456,14.488-4.246,2.884-5.048.514-11.406,3.669-16.315,1.316-2.048,3.462-3.3,5.477-4.567,2.06-1.29,4.028-2.751,5.952-4.236,3.414-2.633,7.04-5.8,8.882-9.781a47.994,47.994,0,0,0,3.022-9.313c.564-2.417.689-6.465,3.194-7.816a5.907,5.907,0,0,1,8.587,4.648,5.276,5.276,0,0,0,1.849,3.882,4.721,4.721,0,0,0,5.683-.144c2.77-2.051,3.364-5.52,3.46-8.759.086-2.693-.106-5.444.68-8.022a11.162,11.162,0,0,1,5.827-6.737c3.095-1.466,6.957-1.562,9.353-4.015,3.594-3.68,1.284-9.713,2.59-14.7a5.828,5.828,0,0,1,1.693-2.8,57.8,57.8,0,0,1,5.321-3.581C128.129,105.63,131.921,103.351,134.235,99.853Z"/><path class="b" d="M166.967,71.656a14.736,14.736,0,0,1,2.087-.965,21.814,21.814,0,0,1,6.415-1.253c28.885,16.254,48.671,44.461,54.865,77.094-9.127-3.209-27.844-11.393-34.236-15.7-4.14-2.779-8.4-5.693-10.963-9.957-3.249-5.386-3.364-12.248-6.785-17.519-2.7-4.188-7.13-6.861-10.944-10.062s-7.312-7.638-6.9-12.6C160.826,76.844,163.548,73.568,166.967,71.656Z"/><path class="a" d="M175.485,67.045c-4.832.289-9.531,1.653-13.118,5.038a12.94,12.94,0,0,0-3.989,12.123c.951,4.541,4.311,8.318,7.8,11.175,3.369,2.762,7.39,5.19,9.879,8.854,2.547,3.751,3.232,8.317,4.653,12.539a24.857,24.857,0,0,0,7.623,11.337c5.521,4.671,11.866,8.011,18.367,11.082a246.143,246.143,0,0,0,22.994,9.654,2.4,2.4,0,0,0,1.276-4.628c-6.241-2.2-12.349-4.823-18.372-7.562a110.179,110.179,0,0,1-16.8-8.916c-3.353-2.292-6.738-4.834-8.793-8.419-2.071-3.615-2.707-7.839-4.058-11.737a24.274,24.274,0,0,0-7.184-10.67c-3.249-2.82-6.974-5.106-9.805-8.388-2.679-3.105-4.209-7.258-1.895-11.007,2.416-3.913,7.062-5.414,11.423-5.675,3.069-.184,3.09-4.985,0-4.8Z"/><path class="b" d="M30.834,217.348a5.524,5.524,0,0,0-2.61-.092,3.593,3.593,0,0,0-1.722.824,3.731,3.731,0,0,0-.9,3.333,13.871,13.871,0,0,0,2.423,5.495,26.9,26.9,0,0,0,5.064,5.512c1.9,1.52,4.4,3.162,6.907,3.234a3.551,3.551,0,0,0,3.717-4.68,7.835,7.835,0,0,0-1.949-3.211c-.925-1.062-1.878-2.1-2.841-3.129-1.8-1.925-3.335-4.239-5.409-5.89A7.5,7.5,0,0,0,30.834,217.348Z"/><path class="b" d="M117.964,218.063a4.474,4.474,0,0,0-2.2,2.51,3.65,3.65,0,0,0-.019,2.615,3.983,3.983,0,0,0,1.866,1.909c1.908,1.017,4.185,1.245,6.26,1.729a79.84,79.84,0,0,0,10.062,1.639,5.4,5.4,0,0,0,3.872-.809c2.02-1.568,1.361-4.915.347-6.893-1.271-2.482-4.3-2.889-6.828-3.178-2.394-.274-4.807-.243-7.21-.391A11.847,11.847,0,0,0,117.964,218.063Z"/><path class="b" d="M120.12,174.747A36.29,36.29,0,0,1,112.187,176c-2.434.185-5.911.566-7.659-1.6a4.285,4.285,0,0,1,.08-4.939c1.429-2.131,3.848-2.9,6.091-3.91a31.182,31.182,0,0,0,7.154-4.048c3.255-2.666,5.284-11.628,11.294-7.963,3.251,1.983,2.3,6.031,1.337,9.016a28.705,28.705,0,0,1-3.277,7.484C125.413,172.662,123.072,173.832,120.12,174.747Z"/><path class="b" d="M99.481,183.819a12.673,12.673,0,0,0,.4-4.446,5.176,5.176,0,0,0-4.271-5.062,4.873,4.873,0,0,0-4.563,1.533c-1.07,1.433-.969,3.414-.6,5.07s1.027,3.678,2.382,4.775A4.256,4.256,0,0,0,99.481,183.819Z"/><path class="b" d="M96.278,267.121c-9.525-.076-17.67-6.7-18.531-16.612-.563-6.479,4.754-12,10.677-13.7a12.314,12.314,0,0,1,9.044.6c3.87,2.006,4.306,4.748,9.316,4.437a14.052,14.052,0,0,0,5.311-.915c2.336-1.167,3.707-3.659,6.306-4.4a7.345,7.345,0,0,1,4.986.571,17.639,17.639,0,0,1,7.888,6.986,16.126,16.126,0,0,1,1.911,9.77,33.428,33.428,0,0,1-2.194,7.664,12.412,12.412,0,0,1-3.527,5.454,9.784,9.784,0,0,1-6.586,2.036c-3.023-.111-5.573-1.095-8.475-1.711C107.023,266.164,101.7,267.164,96.278,267.121Z"/><path class="b" d="M67.564,190.781a3.494,3.494,0,0,1,2.055-1.687,3.9,3.9,0,0,1,3.689,1.3,14.477,14.477,0,0,1,2.876,6.1,19.586,19.586,0,0,1,.5,8.169,4.132,4.132,0,0,1-5.945,3.052c-2.538-1.445-3.332-5.8-3.779-8.4a18.865,18.865,0,0,1-.029-6.882A5.549,5.549,0,0,1,67.564,190.781Z"/><path class="b" d="M67.829,221.788a8.857,8.857,0,0,0,.476-3.121c-.157-4.9-5.134-5.988-9.072-4.673-3.606,1.2-7.095,3.591-8.724,7.113-1.338,2.893-1.078,6.247,2.067,7.759a12.554,12.554,0,0,0,7.041.775,8.748,8.748,0,0,0,5.428-3.117A15.626,15.626,0,0,0,67.829,221.788Z"/><path class="b" d="M132.079,134.487a7.259,7.259,0,0,0-3.606,1.976,7.083,7.083,0,0,0-1.487,7.687c1.935,3.174,5.677,3.792,9.484,3.34a5.211,5.211,0,0,0,4.814-4.732A7.521,7.521,0,0,0,140,137.411a7.638,7.638,0,0,0-3.4-2.682A8.188,8.188,0,0,0,132.079,134.487Z"/><path class="a" d="M1.781,172.882a26.36,26.36,0,0,1,5.625,2.02,32,32,0,0,1,5.368,2.966c4.468,3.257,7.932,8.167,10.69,12.888,1.561,2.672,2.931,5.448,4.4,8.168,1.347,2.485,2.775,5.015,5.016,6.809,4.027,3.225,9.55,2.946,13.822.306a13.65,13.65,0,0,0,4.948-5.155,19.83,19.83,0,0,0,1.809-8.078c.149-2.387.11-5.017,1.261-7.189,1.27-2.4,3.805-3.583,5.98-5.017,4.785-3.153,9.738-6.807,13.111-11.5,3.222-4.488,4.376-10.234,5.432-15.547.348-1.754.645-3.475,2.5-3.789a3.564,3.564,0,0,1,3.7,1.949,18.93,18.93,0,0,1,.693,3.05,6.835,6.835,0,0,0,10.16,4.094c5.3-2.928,5.177-9.378,5.323-14.606.07-2.506.476-4.945,2.137-6.919,1.613-1.917,3.725-2.686,6.062-3.362,2.479-.716,5.05-1.518,6.9-3.416a10.9,10.9,0,0,0,2.786-6.955c.2-2.427-.113-4.876.146-7.3a5.468,5.468,0,0,1,.847-2.726,12.949,12.949,0,0,1,3.4-2.507c4.639-2.993,9.914-5.645,12.787-10.6,2.971-5.125,2.167-11.486-.316-16.627-4.317-8.934-15.115-10.683-23.8-12.845-9.8-2.438-19.74-4.641-29.136-8.408a60.209,60.209,0,0,1-6.16-2.884c-2.719-1.466-5.146,2.677-2.423,4.145,8.7,4.69,18.424,7.276,27.952,9.674,4.62,1.162,9.26,2.247,13.862,3.479,3.831,1.025,8.151,1.927,11.43,4.263a14.678,14.678,0,0,1,5.713,12.2c-.174,5.365-4.521,8.6-8.693,11.2a74.893,74.893,0,0,0-7.258,4.812c-2.185,1.747-2.831,4.53-3.031,7.189-.288,3.852,1.211,9.462-3.046,11.577-2.2,1.093-4.73,1.405-6.982,2.407a13.508,13.508,0,0,0-5.591,4.791,15.436,15.436,0,0,0-2.361,8.138c-.117,2.514.131,5.094-.517,7.552-.443,1.682-1.626,3.909-3.65,3.889-2.366-.023-1.99-3.024-2.582-4.583a8.364,8.364,0,0,0-11.719-4.5,8.136,8.136,0,0,0-3.55,5.406c-.575,2.33-.9,4.693-1.554,7.012a26.965,26.965,0,0,1-3.255,7.831,27.084,27.084,0,0,1-5.354,5.545,71.064,71.064,0,0,1-6.761,4.984c-2.328,1.5-4.755,2.883-6.446,5.141a15.094,15.094,0,0,0-2.579,7.806c-.232,2.392-.128,4.842-.763,7.18a9.029,9.029,0,0,1-8.916,6.489,6.763,6.763,0,0,1-4.977-3.1,61.221,61.221,0,0,1-4.267-7.617,66.689,66.689,0,0,0-9.793-14.443,33.032,33.032,0,0,0-11.286-7.837,29.83,29.83,0,0,0-5.815-2.07c-3.014-.634-4.3,3.992-1.276,4.628Z"/><path class="a" d="M31.472,215.034c-2.352-.573-5.241-.313-6.924,1.63-1.6,1.853-1.643,4.358-.977,6.609,1.22,4.121,4.3,7.941,7.578,10.647s8.554,5.966,12.678,3.006a6.158,6.158,0,0,0,2.257-6.33c-.456-2.234-2.085-3.946-3.557-5.584-1.661-1.849-3.278-3.722-4.912-5.593a13.383,13.383,0,0,0-6.143-4.385c-2.967-.882-4.235,3.749-1.276,4.628,2.754.818,4.584,3.9,6.417,5.989,1.194,1.363,2.469,2.653,3.647,4.032a6.043,6.043,0,0,1,.966,1.4,4.07,4.07,0,0,1,.229.786c-.022-.173-.042.534-.025.448-.026.131-.068.255-.1.383.067-.252-.061.1-.086.141.126-.212-.081.1-.115.129.037-.036.518-.266-.183.117a2.431,2.431,0,0,1-1.212.159,9.366,9.366,0,0,1-4.1-1.9,22.6,22.6,0,0,1-6.14-6.567,11.784,11.784,0,0,1-1.148-2.33,5.648,5.648,0,0,1-.405-2.076c-.018.326.016-.081.023-.13l.068-.247q-.113.209.006-.008c.059-.121.061-.169.352-.307-.155.074.468-.121.5-.126a3.34,3.34,0,0,1,1.308.1,2.4,2.4,0,0,0,1.276-4.628Z"/><path class="a" d="M116.753,215.991a6.976,6.976,0,0,0-3.643,6.086c.034,2.893,2.232,4.755,4.723,5.733a43.48,43.48,0,0,0,7.056,1.7c2.638.547,5.308.943,7.985,1.245,2.4.271,4.989.217,6.838-1.579a6.887,6.887,0,0,0,1.655-6.161,9.1,9.1,0,0,0-2.394-5.123,10.048,10.048,0,0,0-5.573-2.432,80.751,80.751,0,0,0-8.441-.617c-2.857-.136-5.578-.133-8.206,1.152a2.423,2.423,0,0,0-.861,3.284,2.45,2.45,0,0,0,3.283.861,9.422,9.422,0,0,1,4.577-.562c1.957.093,3.92.131,5.876.262a19.416,19.416,0,0,1,4.241.608,3.067,3.067,0,0,1,2.262,1.643,6.159,6.159,0,0,1,.565,2.933.979.979,0,0,1-.379.757,2.587,2.587,0,0,1-1.537.334c-3.755-.024-7.547-1.051-11.2-1.8-1.614-.33-3.756-.472-5.125-1.483-1.171-.863-.187-2.183.722-2.693C121.869,218.624,119.452,214.476,116.753,215.991Z"/><path class="a" d="M117.4,52.287a124.635,124.635,0,0,0-38.709,6.036,113.1,113.1,0,0,0-57.376,42.311A115.492,115.492,0,0,0,5.566,132.387,119.953,119.953,0,0,0,0,168.45a134.927,134.927,0,0,0,5.092,37.508,114.518,114.518,0,0,0,14.63,31.819,106.8,106.8,0,0,0,22.8,24.726,112.181,112.181,0,0,0,30.055,16.813,125.65,125.65,0,0,0,35.534,7.461,135.888,135.888,0,0,0,37.62-2.647,116.453,116.453,0,0,0,32.87-12.414,107.325,107.325,0,0,0,26.337-20.963,109.373,109.373,0,0,0,18.725-28.442,124.574,124.574,0,0,0,9.921-35.115,131,131,0,0,0-.352-37.98A117.251,117.251,0,0,0,222.2,115.137a113.943,113.943,0,0,0-20.547-28.673,112.581,112.581,0,0,0-28.794-21.152A117.354,117.354,0,0,0,137.087,53.8,131.857,131.857,0,0,0,117.4,52.287c-3.089-.005-3.094,4.8,0,4.8a120.234,120.234,0,0,1,37.433,5.864,109.728,109.728,0,0,1,31.082,16.123,107.179,107.179,0,0,1,23.607,24.241,111.377,111.377,0,0,1,15.132,30.5,115.442,115.442,0,0,1,5.346,34.8,130.063,130.063,0,0,1-4.92,36.064,110.2,110.2,0,0,1-14.062,30.545,102.961,102.961,0,0,1-21.9,23.7A105.112,105.112,0,0,1,160.656,274.8a121.248,121.248,0,0,1-34.134,7.191,131.11,131.11,0,0,1-36.332-2.521,112.08,112.08,0,0,1-31.433-11.82,102.957,102.957,0,0,1-25.4-20.177,105.252,105.252,0,0,1-17.948-27.3,118,118,0,0,1-9.438-33.313A125.62,125.62,0,0,1,6.2,150.492a113.237,113.237,0,0,1,10.544-32.933,109.752,109.752,0,0,1,19.8-27.7A108.4,108.4,0,0,1,64.219,69.531a113.463,113.463,0,0,1,34.6-11.081A123.369,123.369,0,0,1,117.4,57.087C120.488,57.082,120.494,52.282,117.4,52.287Z"/><path class="a" d="M119.482,172.433a38.381,38.381,0,0,1-8.532,1.259c-1.213.078-4.336.465-4.755-1.2-.56-2.221,2.691-3.551,4.188-4.2a42.581,42.581,0,0,0,7.64-3.922,15.255,15.255,0,0,0,4.161-4.482,22.855,22.855,0,0,1,2.858-4.033c.11-.108.222-.214.338-.314.557-.484-.354.264.224-.16a2.785,2.785,0,0,1,.374-.213c-.452.228.123-.041.218-.061s.462-.1,0-.019c-.02,0,.685,0,.356-.025s.417.1.393.09c-.051-.015.676.266.45.162,1.793.826,1.792,2.487,1.432,4.219a28.583,28.583,0,0,1-3,8.2,10.2,10.2,0,0,1-6.339,4.7c-2.935.928-1.681,5.564,1.276,4.628a15.474,15.474,0,0,0,8.178-5.334,29.475,29.475,0,0,0,4.215-9.694c.771-2.771,1.121-6.014-.609-8.511a7.439,7.439,0,0,0-7.622-3.046c-2.3.614-3.9,2.5-5.2,4.38-.637.92-1.208,1.882-1.819,2.819a7.376,7.376,0,0,1-1.523,1.938c-4.614,4.223-14.685,4.508-14.991,12.354-.168,4.306,3.768,6.437,7.555,6.573a39.747,39.747,0,0,0,5.239-.311,34.969,34.969,0,0,0,6.576-1.168C123.712,176.183,122.454,171.549,119.482,172.433Z"/><path class="a" d="M101.8,184.457a14.253,14.253,0,0,0,.473-5.243,8.219,8.219,0,0,0-1.781-4.672,7.555,7.555,0,0,0-8.471-2.214,6.349,6.349,0,0,0-3.857,3.96,9.675,9.675,0,0,0-.065,5.1c.652,3.113,2.147,6.184,5.324,7.306a6.779,6.779,0,0,0,5.009-.364,6.542,6.542,0,0,0,3.368-3.87,2.413,2.413,0,0,0-1.676-2.952,2.461,2.461,0,0,0-2.952,1.676c-.175.487.28-.481.02-.044-.048.08-.088.165-.136.246a1.375,1.375,0,0,0-.15.233c.011-.25.333-.385.033-.06-.11.12-.315.235-.391.372.183-.33.361-.256.052-.059-.114.072-.234.131-.349.2-.183.108-.273.01.208-.077a2.886,2.886,0,0,0-.315.112,5.886,5.886,0,0,0-.586.14c.459-.2.457-.033.171-.034-.112,0-.223.009-.336.007-.09,0-.179-.01-.269-.013-.474-.015.529.127.1.008a4.141,4.141,0,0,0-.657-.2c.391.027.4.2.193.071-.1-.06-.2-.122-.307-.176-.208-.108-.261-.312.074.082-.063-.073-.166-.14-.239-.209-.1-.092-.189-.188-.277-.288-.4-.451.163.316-.07-.1-.109-.193-.236-.376-.341-.572-.079-.149-.149-.3-.224-.453-.124-.252.057-.146.043.105a3.222,3.222,0,0,0-.282-.8c-.083-.262-.158-.527-.227-.793s-.13-.519-.184-.78c-.024-.112-.046-.226-.067-.339-.008-.044-.067-.606-.036-.2s-.01-.173-.012-.21c-.009-.118-.015-.236-.019-.355,0-.148,0-.3,0-.444,0-.075.038-.687.007-.3s.035-.15.047-.2c.026-.113.055-.225.089-.336.022-.072.257-.5.064-.2-.208.323.1-.141.119-.179.232-.465-.079.1-.081.07,0-.063.215-.235.264-.282.233-.223.272-.056-.065.03a2.841,2.841,0,0,0,.4-.248,2.03,2.03,0,0,1,.284-.141l-.279.119c.1-.037.2-.072.3-.1.207-.063.417-.1.626-.151.539-.123-.55,0,0,.008.105,0,.211-.011.317-.012s.208,0,.313.006.2.013.307.024c-.365-.054-.452-.063-.259-.029.233.059.466.1.7.179l.147.051q.289.114,0,0l-.146-.059c.092.044.182.09.271.139s.175.1.26.155c.047.03.454.319.124.073s.055.059.1.1c.109.1.214.208.313.318a1.73,1.73,0,0,0,.192.227c-.221-.292-.258-.333-.111-.126l.081.126q.12.191.222.39l.067.135q.16.351-.063-.156a5.281,5.281,0,0,0,.222.733l.033.152c.035.207.038.2.008-.011s-.027-.218,0-.007c.01.106.016.212.02.318.034.681.042,1.367.01,2.047-.008.165-.018.33-.032.494-.009.1-.018.2-.03.294-.021.181-.015.131.019-.152.091.247-.2.9-.276,1.125a2.419,2.419,0,0,0,1.676,2.952A2.453,2.453,0,0,0,101.8,184.457Z"/><path class="a" d="M96.278,264.721c-7.8-.127-14.58-5.285-15.983-13.095A10.425,10.425,0,0,1,84.5,241.448c3.41-2.653,8.483-3.925,12.385-1.612,1.486.881,2.659,2.181,4.133,3.1a10.267,10.267,0,0,0,6.165,1.289c2.59-.144,5.157-.384,7.312-1.969,1.514-1.114,2.991-3.212,4.955-3.509,2.188-.33,4.549,1.221,6.185,2.5a13.6,13.6,0,0,1,4.229,5.385c2.069,4.954.576,10.274-1.473,14.978a7.608,7.608,0,0,1-4.858,4.72c-2.656.724-5.374-.05-7.955-.722a35.962,35.962,0,0,0-9.332-1.255c-3.327.018-6.642.371-9.971.363-3.089-.008-3.093,4.792,0,4.8,3.329.008,6.644-.348,9.971-.363a34.327,34.327,0,0,1,8.883,1.3,19.8,19.8,0,0,0,9.108.646,11.443,11.443,0,0,0,6.894-4.614,27.94,27.94,0,0,0,3.568-8.319,20.932,20.932,0,0,0,.722-9.36,18.612,18.612,0,0,0-9.957-13.349c-2.809-1.469-5.973-2.123-8.957-.755-2.177,1-3.528,3.308-5.717,4.191a11.246,11.246,0,0,1-3.607.53,8.288,8.288,0,0,1-3.054-.253c-1.713-.735-2.928-2.326-4.675-3.394-9.666-5.908-23.811,2.354-24.145,13.458a19.842,19.842,0,0,0,6.28,14.533,21.914,21.914,0,0,0,14.686,5.749C99.368,269.571,99.369,264.771,96.278,264.721Z"/><path class="a" d="M69.636,191.992a1.271,1.271,0,0,1,.4-.478c.3-.247-.179.079.169-.094s.046-.011.055-.012l.192-.013a1.286,1.286,0,0,1,.686.282,6.393,6.393,0,0,1,1.825,2.639,19.391,19.391,0,0,1,1.491,8.931,6.993,6.993,0,0,1-.24,1.406c.034-.08-.229.4-.336.539.284-.362-.5.437-.126.131-.128.1-.624.384-.518.337s-.441.133-.591.16c.508-.089-.441-.039-.2-.011.28.034-.2-.054-.264-.072-.366-.11.239.145-.116-.039-.148-.076-.612-.456-.322-.186-.106-.1-.2-.208-.312-.305-.011-.01-.256-.284-.1-.1a10.369,10.369,0,0,1-.776-1.355c-.209-.439-.083-.2-.045-.1-.06-.153-.116-.308-.171-.464q-.123-.352-.229-.709c-.187-.622-.34-1.254-.475-1.89a25.594,25.594,0,0,1-.574-3.883,9.3,9.3,0,0,1,.58-4.715c1.493-2.707-2.651-5.131-4.145-2.423-2.017,3.658-1.319,8.393-.49,12.3.706,3.327,2.092,7.1,5.552,8.38,3.959,1.47,7.981-1.647,8.532-5.569a23.435,23.435,0,0,0-1.972-12.768,8.793,8.793,0,0,0-5-5.035,5.7,5.7,0,0,0-6.626,2.695C63.839,192.19,67.99,194.6,69.636,191.992Z"/><path class="a" d="M70.143,222.426a9.727,9.727,0,0,0-.318-7.322,7.468,7.468,0,0,0-4.364-3.552c-3.863-1.314-8.3.2-11.554,2.35-3.6,2.371-6.944,6.486-6.53,11.06a7.322,7.322,0,0,0,3.312,5.6,12.633,12.633,0,0,0,7.254,1.653,12.358,12.358,0,0,0,7.469-2.67,16.354,16.354,0,0,0,4.731-7.115,2.4,2.4,0,1,0-4.628-1.276,12.258,12.258,0,0,1-2.706,4.282,6.513,6.513,0,0,1-3.83,1.9c.286-.048-.163.022-.181.024-.237.024-.474.041-.711.053q-.659.033-1.317.006a8.836,8.836,0,0,1-2.525-.449,2.964,2.964,0,0,1-.807-.351,3.946,3.946,0,0,1-.529-.337c.116.093.181.195-.058-.083-.1-.115-.214-.215-.31-.334.263.326-.014-.054-.069-.147s-.249-.534-.085-.113c-.079-.2-.12-.416-.188-.623-.028-.087-.076-.467-.022-.011-.018-.146-.025-.3-.029-.443-.006-.189,0-.376.01-.564,0-.119.092-.6.01-.162a8.745,8.745,0,0,1,.222-.917c.059-.192.124-.382.2-.569q.09-.232-.005.011c.056-.123.115-.244.177-.364a10.031,10.031,0,0,1,2.933-3.468,16.327,16.327,0,0,1,1.918-1.2,12.238,12.238,0,0,1,2.01-.892c.35-.122.7-.232,1.064-.319.138-.034.276-.064.414-.092,0,0,.677-.107.308-.058s.314-.023.309-.023c.14-.009.279-.016.419-.019.345-.008.687.014,1.031.036.647.042-.321-.072.063.013.2.043.39.08.582.133.158.044.311.1.467.146.468.141-.313-.21.134.062.169.1.87.6.462.245.14.122.716.773.4.34.116.159.2.333.314.493.266.385-.062-.335.087.168.041.137.088.27.124.409.013.048.126.729.073.254a6.9,6.9,0,0,1-.357,2.968,2.4,2.4,0,1,0,4.628,1.276Z"/><path class="a" d="M131.441,132.173a9.7,9.7,0,0,0-7.382,8.623,7.827,7.827,0,0,0,1.708,5.739A9.365,9.365,0,0,0,130.1,149.4a13.92,13.92,0,0,0,5.052.6,9.891,9.891,0,0,0,5.124-1.38,7.487,7.487,0,0,0,3.186-4.415,10.528,10.528,0,0,0-.316-5.923,9.771,9.771,0,0,0-11.71-6.111,2.416,2.416,0,0,0-1.676,2.952,2.456,2.456,0,0,0,2.952,1.676c-.072.016.746-.129.439-.089-.252.032.269-.017.318-.02a9.356,9.356,0,0,1,1.148.016c.057,0,.46.078.117.014.166.031.331.065.5.1.2.049.4.14.6.176.286.052-.236-.15.147.052a7.8,7.8,0,0,1,.928.56c-.37-.265.279.257.353.328.213.2.416.421.61.644-.027-.03.416.538.237.285-.112-.158.218.354.261.431q.114.2.212.408c.169.363-.113-.494.054.173.075.3.165.592.228.9.1.473.025.164.014.057.02.2.032.394.039.592.015.4-.035.806-.026,1.208.009.418.142-.5-.011.1-.033.13-.057.26-.093.389s-.087.246-.12.371c.111-.423.092-.182.016-.05-.063.108-.117.22-.181.327-.01.017-.355.509-.127.211s-.152.157-.168.173c-.1.108-.235.2-.331.312-.208.247.456-.265-.02.011-.105.061-.2.132-.31.193-.167.1-.75.316-.258.151-.268.09-.533.165-.8.241-.136.038-.582.11-.015.027-.218.032-.439.049-.658.068a16.856,16.856,0,0,1-1.839.059c-.318-.008-.631-.037-.948-.057-.107-.006-.468-.07.021.01-.2-.033-.4-.065-.6-.107-.262-.055-.522-.12-.779-.2-.126-.038-.253-.079-.377-.123-.011,0-.59-.256-.261-.095s-.237-.129-.242-.131c-.114-.061-.227-.125-.338-.192s-.218-.14-.327-.21c-.511-.33.315.316-.132-.1-.193-.181-.375-.374-.565-.559-.441-.43.132.239-.072-.073a2.64,2.64,0,0,0-.235-.35c-.2-.217.089.416-.056-.124-.038-.139-.087-.274-.123-.414s-.055-.282-.093-.419c.131.475-.007-.083-.014-.211a8.232,8.232,0,0,1,.03-1.065c-.036.464-.017.112.009.006.052-.207.091-.416.151-.621.039-.137.09-.27.129-.406.152-.523-.144.231.084-.212.163-.315.346-.611.526-.916.324-.549-.189.175.065-.1.118-.127.226-.263.347-.387.136-.14.279-.271.426-.4q.191-.159-.031.015c.093-.068.189-.133.286-.195.13-.084.261-.163.4-.239.075-.042.627-.313.44-.232-.247.106.2-.069.252-.087.256-.087.515-.157.778-.221a2.424,2.424,0,0,0,1.677-2.952A2.45,2.45,0,0,0,131.441,132.173Z"/></svg>